<mxfile host="app.diagrams.net" agent="Mozilla/5.0 (Windows NT 10.0; Win64; x64) AppleWebKit/537.36 (KHTML, like Gecko) Chrome/127.0.0.0 Safari/537.36" version="24.7.6">
  <diagram name="Page-1" id="IZydbGZN5Iw_WI476OVO">
    <mxGraphModel dx="5900" dy="3120" grid="1" gridSize="10" guides="1" tooltips="1" connect="1" arrows="1" fold="1" page="1" pageScale="1" pageWidth="850" pageHeight="1100" math="0" shadow="0">
      <root>
        <mxCell id="0" />
        <mxCell id="1" parent="0" />
        <mxCell id="ifvDIBjyfbEK1ll5_QF5-212" value="ProductType" style="swimlane;fontStyle=0;childLayout=stackLayout;horizontal=1;startSize=30;horizontalStack=0;resizeParent=1;resizeParentMax=0;resizeLast=0;collapsible=1;marginBottom=0;whiteSpace=wrap;html=1;strokeColor=default;align=center;verticalAlign=middle;fontFamily=Helvetica;fontSize=12;fontColor=default;fillColor=default;" parent="1" vertex="1">
          <mxGeometry x="-770" y="-620" width="260" height="190" as="geometry" />
        </mxCell>
        <mxCell id="ifvDIBjyfbEK1ll5_QF5-223" value="-typeName : String" style="text;strokeColor=none;fillColor=none;align=left;verticalAlign=middle;spacingLeft=4;spacingRight=4;overflow=hidden;points=[[0,0.5],[1,0.5]];portConstraint=eastwest;rotatable=0;whiteSpace=wrap;html=1;fontFamily=Helvetica;fontSize=12;fontColor=default;fontStyle=0;" parent="ifvDIBjyfbEK1ll5_QF5-212" vertex="1">
          <mxGeometry y="30" width="260" height="30" as="geometry" />
        </mxCell>
        <mxCell id="ifvDIBjyfbEK1ll5_QF5-224" value="-typeId :&amp;nbsp;String" style="text;strokeColor=none;fillColor=none;align=left;verticalAlign=middle;spacingLeft=4;spacingRight=4;overflow=hidden;points=[[0,0.5],[1,0.5]];portConstraint=eastwest;rotatable=0;whiteSpace=wrap;html=1;fontFamily=Helvetica;fontSize=12;fontColor=default;fontStyle=0;" parent="ifvDIBjyfbEK1ll5_QF5-212" vertex="1">
          <mxGeometry y="60" width="260" height="30" as="geometry" />
        </mxCell>
        <mxCell id="ifvDIBjyfbEK1ll5_QF5-216" value="" style="swimlane;startSize=0;strokeColor=default;align=center;verticalAlign=middle;fontFamily=Helvetica;fontSize=12;fontColor=default;fontStyle=0;fillColor=default;" parent="ifvDIBjyfbEK1ll5_QF5-212" vertex="1">
          <mxGeometry y="90" width="260" height="100" as="geometry" />
        </mxCell>
        <mxCell id="ifvDIBjyfbEK1ll5_QF5-215" value="+loadAllProductTypesData() :&amp;nbsp;List&amp;lt;Product&amp;gt;" style="text;strokeColor=none;fillColor=none;align=left;verticalAlign=middle;spacingLeft=4;spacingRight=4;overflow=hidden;points=[[0,0.5],[1,0.5]];portConstraint=eastwest;rotatable=0;whiteSpace=wrap;html=1;fontFamily=Helvetica;fontSize=12;fontColor=default;fontStyle=0;" parent="ifvDIBjyfbEK1ll5_QF5-216" vertex="1">
          <mxGeometry y="20" width="260" height="30" as="geometry" />
        </mxCell>
        <mxCell id="ifvDIBjyfbEK1ll5_QF5-213" value="+loadProductTypesDataToConsole()" style="text;strokeColor=none;fillColor=none;align=left;verticalAlign=middle;spacingLeft=4;spacingRight=4;overflow=hidden;points=[[0,0.5],[1,0.5]];portConstraint=eastwest;rotatable=0;whiteSpace=wrap;html=1;fontFamily=Helvetica;fontSize=12;fontColor=default;fontStyle=0;" parent="ifvDIBjyfbEK1ll5_QF5-216" vertex="1">
          <mxGeometry y="50" width="240" height="30" as="geometry" />
        </mxCell>
        <mxCell id="ifvDIBjyfbEK1ll5_QF5-238" value="Account" style="swimlane;fontStyle=0;childLayout=stackLayout;horizontal=1;startSize=30;horizontalStack=0;resizeParent=1;resizeParentMax=0;resizeLast=0;collapsible=1;marginBottom=0;whiteSpace=wrap;html=1;strokeColor=default;align=center;verticalAlign=middle;fontFamily=Helvetica;fontSize=12;fontColor=default;fillColor=default;" parent="1" vertex="1">
          <mxGeometry y="-210" width="240" height="370" as="geometry" />
        </mxCell>
        <mxCell id="ifvDIBjyfbEK1ll5_QF5-239" value="-accountId : int" style="text;strokeColor=none;fillColor=none;align=left;verticalAlign=middle;spacingLeft=4;spacingRight=4;overflow=hidden;points=[[0,0.5],[1,0.5]];portConstraint=eastwest;rotatable=0;whiteSpace=wrap;html=1;fontFamily=Helvetica;fontSize=12;fontColor=default;fontStyle=0;" parent="ifvDIBjyfbEK1ll5_QF5-238" vertex="1">
          <mxGeometry y="30" width="240" height="30" as="geometry" />
        </mxCell>
        <mxCell id="ifvDIBjyfbEK1ll5_QF5-240" value="-username :&amp;nbsp;String" style="text;strokeColor=none;fillColor=none;align=left;verticalAlign=middle;spacingLeft=4;spacingRight=4;overflow=hidden;points=[[0,0.5],[1,0.5]];portConstraint=eastwest;rotatable=0;whiteSpace=wrap;html=1;fontFamily=Helvetica;fontSize=12;fontColor=default;fontStyle=0;" parent="ifvDIBjyfbEK1ll5_QF5-238" vertex="1">
          <mxGeometry y="60" width="240" height="30" as="geometry" />
        </mxCell>
        <mxCell id="ifvDIBjyfbEK1ll5_QF5-241" value="-pass :&amp;nbsp;String" style="text;strokeColor=none;fillColor=none;align=left;verticalAlign=middle;spacingLeft=4;spacingRight=4;overflow=hidden;points=[[0,0.5],[1,0.5]];portConstraint=eastwest;rotatable=0;whiteSpace=wrap;html=1;fontFamily=Helvetica;fontSize=12;fontColor=default;fontStyle=0;" parent="ifvDIBjyfbEK1ll5_QF5-238" vertex="1">
          <mxGeometry y="90" width="240" height="30" as="geometry" />
        </mxCell>
        <mxCell id="ifvDIBjyfbEK1ll5_QF5-242" value="-roles : Boolean" style="text;strokeColor=none;fillColor=none;align=left;verticalAlign=middle;spacingLeft=4;spacingRight=4;overflow=hidden;points=[[0,0.5],[1,0.5]];portConstraint=eastwest;rotatable=0;whiteSpace=wrap;html=1;fontFamily=Helvetica;fontSize=12;fontColor=default;fontStyle=0;" parent="ifvDIBjyfbEK1ll5_QF5-238" vertex="1">
          <mxGeometry y="120" width="240" height="30" as="geometry" />
        </mxCell>
        <mxCell id="ifvDIBjyfbEK1ll5_QF5-243" value="-fullname :&amp;nbsp;String" style="text;strokeColor=none;fillColor=none;align=left;verticalAlign=middle;spacingLeft=4;spacingRight=4;overflow=hidden;points=[[0,0.5],[1,0.5]];portConstraint=eastwest;rotatable=0;whiteSpace=wrap;html=1;fontFamily=Helvetica;fontSize=12;fontColor=default;fontStyle=0;" parent="ifvDIBjyfbEK1ll5_QF5-238" vertex="1">
          <mxGeometry y="150" width="240" height="30" as="geometry" />
        </mxCell>
        <mxCell id="ifvDIBjyfbEK1ll5_QF5-305" value="-userAddress : String" style="text;strokeColor=none;fillColor=none;align=left;verticalAlign=middle;spacingLeft=4;spacingRight=4;overflow=hidden;points=[[0,0.5],[1,0.5]];portConstraint=eastwest;rotatable=0;whiteSpace=wrap;html=1;fontFamily=Helvetica;fontSize=12;fontColor=default;fontStyle=0;" parent="ifvDIBjyfbEK1ll5_QF5-238" vertex="1">
          <mxGeometry y="180" width="240" height="30" as="geometry" />
        </mxCell>
        <mxCell id="ifvDIBjyfbEK1ll5_QF5-304" value="-Phone :&amp;nbsp;String" style="text;strokeColor=none;fillColor=none;align=left;verticalAlign=middle;spacingLeft=4;spacingRight=4;overflow=hidden;points=[[0,0.5],[1,0.5]];portConstraint=eastwest;rotatable=0;whiteSpace=wrap;html=1;fontFamily=Helvetica;fontSize=12;fontColor=default;fontStyle=0;" parent="ifvDIBjyfbEK1ll5_QF5-238" vertex="1">
          <mxGeometry y="210" width="240" height="30" as="geometry" />
        </mxCell>
        <mxCell id="ifvDIBjyfbEK1ll5_QF5-303" value="-email :&amp;nbsp;String" style="text;strokeColor=none;fillColor=none;align=left;verticalAlign=middle;spacingLeft=4;spacingRight=4;overflow=hidden;points=[[0,0.5],[1,0.5]];portConstraint=eastwest;rotatable=0;whiteSpace=wrap;html=1;fontFamily=Helvetica;fontSize=12;fontColor=default;fontStyle=0;" parent="ifvDIBjyfbEK1ll5_QF5-238" vertex="1">
          <mxGeometry y="240" width="240" height="30" as="geometry" />
        </mxCell>
        <mxCell id="ifvDIBjyfbEK1ll5_QF5-245" value="" style="swimlane;startSize=0;strokeColor=default;align=center;verticalAlign=middle;fontFamily=Helvetica;fontSize=12;fontColor=default;fontStyle=0;fillColor=default;" parent="ifvDIBjyfbEK1ll5_QF5-238" vertex="1">
          <mxGeometry y="270" width="240" height="100" as="geometry" />
        </mxCell>
        <mxCell id="ifvDIBjyfbEK1ll5_QF5-246" value="+loadAllAccountsData() :&amp;nbsp;List&amp;lt;Product&amp;gt;" style="text;strokeColor=none;fillColor=none;align=left;verticalAlign=middle;spacingLeft=4;spacingRight=4;overflow=hidden;points=[[0,0.5],[1,0.5]];portConstraint=eastwest;rotatable=0;whiteSpace=wrap;html=1;fontFamily=Helvetica;fontSize=12;fontColor=default;fontStyle=0;" parent="ifvDIBjyfbEK1ll5_QF5-245" vertex="1">
          <mxGeometry y="20" width="240" height="30" as="geometry" />
        </mxCell>
        <mxCell id="ifvDIBjyfbEK1ll5_QF5-247" value="+loadAccountDataToConsole()" style="text;strokeColor=none;fillColor=none;align=left;verticalAlign=middle;spacingLeft=4;spacingRight=4;overflow=hidden;points=[[0,0.5],[1,0.5]];portConstraint=eastwest;rotatable=0;whiteSpace=wrap;html=1;fontFamily=Helvetica;fontSize=12;fontColor=default;fontStyle=0;" parent="ifvDIBjyfbEK1ll5_QF5-245" vertex="1">
          <mxGeometry y="50" width="240" height="30" as="geometry" />
        </mxCell>
        <mxCell id="ifvDIBjyfbEK1ll5_QF5-251" value="Customer" style="swimlane;fontStyle=0;childLayout=stackLayout;horizontal=1;startSize=30;horizontalStack=0;resizeParent=1;resizeParentMax=0;resizeLast=0;collapsible=1;marginBottom=0;whiteSpace=wrap;html=1;strokeColor=default;align=center;verticalAlign=middle;fontFamily=Helvetica;fontSize=12;fontColor=default;fillColor=default;" parent="1" vertex="1">
          <mxGeometry y="-640" width="280" height="370" as="geometry" />
        </mxCell>
        <mxCell id="ifvDIBjyfbEK1ll5_QF5-252" value="-customerId :&amp;nbsp;String" style="text;strokeColor=none;fillColor=none;align=left;verticalAlign=middle;spacingLeft=4;spacingRight=4;overflow=hidden;points=[[0,0.5],[1,0.5]];portConstraint=eastwest;rotatable=0;whiteSpace=wrap;html=1;fontFamily=Helvetica;fontSize=12;fontColor=default;fontStyle=0;" parent="ifvDIBjyfbEK1ll5_QF5-251" vertex="1">
          <mxGeometry y="30" width="280" height="30" as="geometry" />
        </mxCell>
        <mxCell id="ifvDIBjyfbEK1ll5_QF5-253" value="-customerName :&amp;nbsp;String" style="text;strokeColor=none;fillColor=none;align=left;verticalAlign=middle;spacingLeft=4;spacingRight=4;overflow=hidden;points=[[0,0.5],[1,0.5]];portConstraint=eastwest;rotatable=0;whiteSpace=wrap;html=1;fontFamily=Helvetica;fontSize=12;fontColor=default;fontStyle=0;" parent="ifvDIBjyfbEK1ll5_QF5-251" vertex="1">
          <mxGeometry y="60" width="280" height="30" as="geometry" />
        </mxCell>
        <mxCell id="ifvDIBjyfbEK1ll5_QF5-254" value="-customerAddress :&amp;nbsp;String" style="text;strokeColor=none;fillColor=none;align=left;verticalAlign=middle;spacingLeft=4;spacingRight=4;overflow=hidden;points=[[0,0.5],[1,0.5]];portConstraint=eastwest;rotatable=0;whiteSpace=wrap;html=1;fontFamily=Helvetica;fontSize=12;fontColor=default;fontStyle=0;" parent="ifvDIBjyfbEK1ll5_QF5-251" vertex="1">
          <mxGeometry y="90" width="280" height="30" as="geometry" />
        </mxCell>
        <mxCell id="ifvDIBjyfbEK1ll5_QF5-255" value="-phone :&amp;nbsp;String" style="text;strokeColor=none;fillColor=none;align=left;verticalAlign=middle;spacingLeft=4;spacingRight=4;overflow=hidden;points=[[0,0.5],[1,0.5]];portConstraint=eastwest;rotatable=0;whiteSpace=wrap;html=1;fontFamily=Helvetica;fontSize=12;fontColor=default;fontStyle=0;" parent="ifvDIBjyfbEK1ll5_QF5-251" vertex="1">
          <mxGeometry y="120" width="280" height="30" as="geometry" />
        </mxCell>
        <mxCell id="ifvDIBjyfbEK1ll5_QF5-256" value="-point : int" style="text;strokeColor=none;fillColor=none;align=left;verticalAlign=middle;spacingLeft=4;spacingRight=4;overflow=hidden;points=[[0,0.5],[1,0.5]];portConstraint=eastwest;rotatable=0;whiteSpace=wrap;html=1;fontFamily=Helvetica;fontSize=12;fontColor=default;fontStyle=0;" parent="ifvDIBjyfbEK1ll5_QF5-251" vertex="1">
          <mxGeometry y="150" width="280" height="30" as="geometry" />
        </mxCell>
        <mxCell id="ifvDIBjyfbEK1ll5_QF5-258" value="" style="swimlane;startSize=0;strokeColor=default;align=center;verticalAlign=middle;fontFamily=Helvetica;fontSize=12;fontColor=default;fontStyle=0;fillColor=default;" parent="ifvDIBjyfbEK1ll5_QF5-251" vertex="1">
          <mxGeometry y="180" width="280" height="190" as="geometry" />
        </mxCell>
        <mxCell id="ifvDIBjyfbEK1ll5_QF5-259" value="+loadAllCustomersData() :&amp;nbsp;List&amp;lt;Customer&amp;gt;" style="text;strokeColor=none;fillColor=none;align=left;verticalAlign=middle;spacingLeft=4;spacingRight=4;overflow=hidden;points=[[0,0.5],[1,0.5]];portConstraint=eastwest;rotatable=0;whiteSpace=wrap;html=1;fontFamily=Helvetica;fontSize=12;fontColor=default;fontStyle=0;" parent="ifvDIBjyfbEK1ll5_QF5-258" vertex="1">
          <mxGeometry y="20" width="240" height="30" as="geometry" />
        </mxCell>
        <mxCell id="ifvDIBjyfbEK1ll5_QF5-260" value="+loadCustomersDataToConsole()" style="text;strokeColor=none;fillColor=none;align=left;verticalAlign=middle;spacingLeft=4;spacingRight=4;overflow=hidden;points=[[0,0.5],[1,0.5]];portConstraint=eastwest;rotatable=0;whiteSpace=wrap;html=1;fontFamily=Helvetica;fontSize=12;fontColor=default;fontStyle=0;" parent="ifvDIBjyfbEK1ll5_QF5-258" vertex="1">
          <mxGeometry y="50" width="240" height="30" as="geometry" />
        </mxCell>
        <mxCell id="ifvDIBjyfbEK1ll5_QF5-261" value="+updateCustomerPointByPhone(Phone : String, newPoints : int)" style="text;strokeColor=none;fillColor=none;align=left;verticalAlign=middle;spacingLeft=4;spacingRight=4;overflow=hidden;points=[[0,0.5],[1,0.5]];portConstraint=eastwest;rotatable=0;whiteSpace=wrap;html=1;fontFamily=Helvetica;fontSize=12;fontColor=default;fontStyle=0;" parent="ifvDIBjyfbEK1ll5_QF5-258" vertex="1">
          <mxGeometry y="80" width="280" height="30" as="geometry" />
        </mxCell>
        <mxCell id="ifvDIBjyfbEK1ll5_QF5-262" value="+deleteProduct(productId : String )" style="text;strokeColor=none;fillColor=none;align=left;verticalAlign=middle;spacingLeft=4;spacingRight=4;overflow=hidden;points=[[0,0.5],[1,0.5]];portConstraint=eastwest;rotatable=0;whiteSpace=wrap;html=1;fontFamily=Helvetica;fontSize=12;fontColor=default;fontStyle=0;" parent="ifvDIBjyfbEK1ll5_QF5-258" vertex="1">
          <mxGeometry y="110" width="240" height="30" as="geometry" />
        </mxCell>
        <mxCell id="ifvDIBjyfbEK1ll5_QF5-263" value="+updateProduct(product :&amp;nbsp;Product )" style="text;strokeColor=none;fillColor=none;align=left;verticalAlign=middle;spacingLeft=4;spacingRight=4;overflow=hidden;points=[[0,0.5],[1,0.5]];portConstraint=eastwest;rotatable=0;whiteSpace=wrap;html=1;fontFamily=Helvetica;fontSize=12;fontColor=default;fontStyle=0;" parent="ifvDIBjyfbEK1ll5_QF5-258" vertex="1">
          <mxGeometry y="140" width="240" height="30" as="geometry" />
        </mxCell>
        <mxCell id="ifvDIBjyfbEK1ll5_QF5-264" value="Product" style="swimlane;fontStyle=0;childLayout=stackLayout;horizontal=1;startSize=30;horizontalStack=0;resizeParent=1;resizeParentMax=0;resizeLast=0;collapsible=1;marginBottom=0;whiteSpace=wrap;html=1;strokeColor=default;align=center;verticalAlign=middle;fontFamily=Helvetica;fontSize=12;fontColor=default;fillColor=default;" parent="1" vertex="1">
          <mxGeometry x="-760" y="-280" width="240" height="400" as="geometry" />
        </mxCell>
        <mxCell id="ifvDIBjyfbEK1ll5_QF5-265" value="-productId :String" style="text;strokeColor=none;fillColor=none;align=left;verticalAlign=middle;spacingLeft=4;spacingRight=4;overflow=hidden;points=[[0,0.5],[1,0.5]];portConstraint=eastwest;rotatable=0;whiteSpace=wrap;html=1;fontFamily=Helvetica;fontSize=12;fontColor=default;fontStyle=0;" parent="ifvDIBjyfbEK1ll5_QF5-264" vertex="1">
          <mxGeometry y="30" width="240" height="30" as="geometry" />
        </mxCell>
        <mxCell id="ifvDIBjyfbEK1ll5_QF5-266" value="-typeId :&amp;nbsp;String" style="text;strokeColor=none;fillColor=none;align=left;verticalAlign=middle;spacingLeft=4;spacingRight=4;overflow=hidden;points=[[0,0.5],[1,0.5]];portConstraint=eastwest;rotatable=0;whiteSpace=wrap;html=1;fontFamily=Helvetica;fontSize=12;fontColor=default;fontStyle=0;" parent="ifvDIBjyfbEK1ll5_QF5-264" vertex="1">
          <mxGeometry y="60" width="240" height="30" as="geometry" />
        </mxCell>
        <mxCell id="ifvDIBjyfbEK1ll5_QF5-267" value="-productName :&amp;nbsp;String" style="text;strokeColor=none;fillColor=none;align=left;verticalAlign=middle;spacingLeft=4;spacingRight=4;overflow=hidden;points=[[0,0.5],[1,0.5]];portConstraint=eastwest;rotatable=0;whiteSpace=wrap;html=1;fontFamily=Helvetica;fontSize=12;fontColor=default;fontStyle=0;" parent="ifvDIBjyfbEK1ll5_QF5-264" vertex="1">
          <mxGeometry y="90" width="240" height="30" as="geometry" />
        </mxCell>
        <mxCell id="ifvDIBjyfbEK1ll5_QF5-268" value="-unit :&amp;nbsp;String" style="text;strokeColor=none;fillColor=none;align=left;verticalAlign=middle;spacingLeft=4;spacingRight=4;overflow=hidden;points=[[0,0.5],[1,0.5]];portConstraint=eastwest;rotatable=0;whiteSpace=wrap;html=1;fontFamily=Helvetica;fontSize=12;fontColor=default;fontStyle=0;" parent="ifvDIBjyfbEK1ll5_QF5-264" vertex="1">
          <mxGeometry y="120" width="240" height="30" as="geometry" />
        </mxCell>
        <mxCell id="ifvDIBjyfbEK1ll5_QF5-269" value="-price : Double" style="text;strokeColor=none;fillColor=none;align=left;verticalAlign=middle;spacingLeft=4;spacingRight=4;overflow=hidden;points=[[0,0.5],[1,0.5]];portConstraint=eastwest;rotatable=0;whiteSpace=wrap;html=1;fontFamily=Helvetica;fontSize=12;fontColor=default;fontStyle=0;" parent="ifvDIBjyfbEK1ll5_QF5-264" vertex="1">
          <mxGeometry y="150" width="240" height="30" as="geometry" />
        </mxCell>
        <mxCell id="ifvDIBjyfbEK1ll5_QF5-270" value="-images :&amp;nbsp;String" style="text;strokeColor=none;fillColor=none;align=left;verticalAlign=middle;spacingLeft=4;spacingRight=4;overflow=hidden;points=[[0,0.5],[1,0.5]];portConstraint=eastwest;rotatable=0;whiteSpace=wrap;html=1;fontFamily=Helvetica;fontSize=12;fontColor=default;fontStyle=0;" parent="ifvDIBjyfbEK1ll5_QF5-264" vertex="1">
          <mxGeometry y="180" width="240" height="30" as="geometry" />
        </mxCell>
        <mxCell id="ifvDIBjyfbEK1ll5_QF5-271" value="" style="swimlane;startSize=0;strokeColor=default;align=center;verticalAlign=middle;fontFamily=Helvetica;fontSize=12;fontColor=default;fontStyle=0;fillColor=default;" parent="ifvDIBjyfbEK1ll5_QF5-264" vertex="1">
          <mxGeometry y="210" width="240" height="190" as="geometry" />
        </mxCell>
        <mxCell id="ifvDIBjyfbEK1ll5_QF5-272" value="+loadAllProductsData() :&amp;nbsp;List&amp;lt;Product&amp;gt;" style="text;strokeColor=none;fillColor=none;align=left;verticalAlign=middle;spacingLeft=4;spacingRight=4;overflow=hidden;points=[[0,0.5],[1,0.5]];portConstraint=eastwest;rotatable=0;whiteSpace=wrap;html=1;fontFamily=Helvetica;fontSize=12;fontColor=default;fontStyle=0;" parent="ifvDIBjyfbEK1ll5_QF5-271" vertex="1">
          <mxGeometry y="20" width="240" height="30" as="geometry" />
        </mxCell>
        <mxCell id="ifvDIBjyfbEK1ll5_QF5-273" value="+isProductIdExist(productId : String )" style="text;strokeColor=none;fillColor=none;align=left;verticalAlign=middle;spacingLeft=4;spacingRight=4;overflow=hidden;points=[[0,0.5],[1,0.5]];portConstraint=eastwest;rotatable=0;whiteSpace=wrap;html=1;fontFamily=Helvetica;fontSize=12;fontColor=default;fontStyle=0;" parent="ifvDIBjyfbEK1ll5_QF5-271" vertex="1">
          <mxGeometry y="50" width="240" height="30" as="geometry" />
        </mxCell>
        <mxCell id="ifvDIBjyfbEK1ll5_QF5-274" value="+addProduct(product : Product )" style="text;strokeColor=none;fillColor=none;align=left;verticalAlign=middle;spacingLeft=4;spacingRight=4;overflow=hidden;points=[[0,0.5],[1,0.5]];portConstraint=eastwest;rotatable=0;whiteSpace=wrap;html=1;fontFamily=Helvetica;fontSize=12;fontColor=default;fontStyle=0;" parent="ifvDIBjyfbEK1ll5_QF5-271" vertex="1">
          <mxGeometry y="80" width="240" height="30" as="geometry" />
        </mxCell>
        <mxCell id="ifvDIBjyfbEK1ll5_QF5-275" value="+deleteProduct(productId : String)" style="text;strokeColor=none;fillColor=none;align=left;verticalAlign=middle;spacingLeft=4;spacingRight=4;overflow=hidden;points=[[0,0.5],[1,0.5]];portConstraint=eastwest;rotatable=0;whiteSpace=wrap;html=1;fontFamily=Helvetica;fontSize=12;fontColor=default;fontStyle=0;" parent="ifvDIBjyfbEK1ll5_QF5-271" vertex="1">
          <mxGeometry y="110" width="240" height="30" as="geometry" />
        </mxCell>
        <mxCell id="ifvDIBjyfbEK1ll5_QF5-276" value="+updateProduct(product : Product)" style="text;strokeColor=none;fillColor=none;align=left;verticalAlign=middle;spacingLeft=4;spacingRight=4;overflow=hidden;points=[[0,0.5],[1,0.5]];portConstraint=eastwest;rotatable=0;whiteSpace=wrap;html=1;fontFamily=Helvetica;fontSize=12;fontColor=default;fontStyle=0;" parent="ifvDIBjyfbEK1ll5_QF5-271" vertex="1">
          <mxGeometry y="140" width="240" height="30" as="geometry" />
        </mxCell>
        <mxCell id="ifvDIBjyfbEK1ll5_QF5-277" value="Bill" style="swimlane;fontStyle=0;childLayout=stackLayout;horizontal=1;startSize=30;horizontalStack=0;resizeParent=1;resizeParentMax=0;resizeLast=0;collapsible=1;marginBottom=0;whiteSpace=wrap;html=1;strokeColor=default;align=center;verticalAlign=middle;fontFamily=Helvetica;fontSize=12;fontColor=default;fillColor=default;" parent="1" vertex="1">
          <mxGeometry x="-360" y="-610" width="240" height="410" as="geometry" />
        </mxCell>
        <mxCell id="ifvDIBjyfbEK1ll5_QF5-278" value="-billId :&amp;nbsp;String" style="text;strokeColor=none;fillColor=none;align=left;verticalAlign=middle;spacingLeft=4;spacingRight=4;overflow=hidden;points=[[0,0.5],[1,0.5]];portConstraint=eastwest;rotatable=0;whiteSpace=wrap;html=1;fontFamily=Helvetica;fontSize=12;fontColor=default;fontStyle=0;" parent="ifvDIBjyfbEK1ll5_QF5-277" vertex="1">
          <mxGeometry y="30" width="240" height="30" as="geometry" />
        </mxCell>
        <mxCell id="ifvDIBjyfbEK1ll5_QF5-279" value="-accountId :&amp;nbsp;int" style="text;strokeColor=none;fillColor=none;align=left;verticalAlign=middle;spacingLeft=4;spacingRight=4;overflow=hidden;points=[[0,0.5],[1,0.5]];portConstraint=eastwest;rotatable=0;whiteSpace=wrap;html=1;fontFamily=Helvetica;fontSize=12;fontColor=default;fontStyle=0;" parent="ifvDIBjyfbEK1ll5_QF5-277" vertex="1">
          <mxGeometry y="60" width="240" height="30" as="geometry" />
        </mxCell>
        <mxCell id="ifvDIBjyfbEK1ll5_QF5-280" value="-createdDate :&amp;nbsp;Date" style="text;strokeColor=none;fillColor=none;align=left;verticalAlign=middle;spacingLeft=4;spacingRight=4;overflow=hidden;points=[[0,0.5],[1,0.5]];portConstraint=eastwest;rotatable=0;whiteSpace=wrap;html=1;fontFamily=Helvetica;fontSize=12;fontColor=default;fontStyle=0;" parent="ifvDIBjyfbEK1ll5_QF5-277" vertex="1">
          <mxGeometry y="90" width="240" height="30" as="geometry" />
        </mxCell>
        <mxCell id="ifvDIBjyfbEK1ll5_QF5-281" value="-customerId :&amp;nbsp;String" style="text;strokeColor=none;fillColor=none;align=left;verticalAlign=middle;spacingLeft=4;spacingRight=4;overflow=hidden;points=[[0,0.5],[1,0.5]];portConstraint=eastwest;rotatable=0;whiteSpace=wrap;html=1;fontFamily=Helvetica;fontSize=12;fontColor=default;fontStyle=0;" parent="ifvDIBjyfbEK1ll5_QF5-277" vertex="1">
          <mxGeometry y="120" width="240" height="30" as="geometry" />
        </mxCell>
        <mxCell id="ifvDIBjyfbEK1ll5_QF5-282" value="-totalPrice : Double" style="text;strokeColor=none;fillColor=none;align=left;verticalAlign=middle;spacingLeft=4;spacingRight=4;overflow=hidden;points=[[0,0.5],[1,0.5]];portConstraint=eastwest;rotatable=0;whiteSpace=wrap;html=1;fontFamily=Helvetica;fontSize=12;fontColor=default;fontStyle=0;" parent="ifvDIBjyfbEK1ll5_QF5-277" vertex="1">
          <mxGeometry y="150" width="240" height="30" as="geometry" />
        </mxCell>
        <mxCell id="ifvDIBjyfbEK1ll5_QF5-283" value="-BillDetailList : List&amp;lt;BillDetail&amp;gt;" style="text;strokeColor=none;fillColor=none;align=left;verticalAlign=middle;spacingLeft=4;spacingRight=4;overflow=hidden;points=[[0,0.5],[1,0.5]];portConstraint=eastwest;rotatable=0;whiteSpace=wrap;html=1;fontFamily=Helvetica;fontSize=12;fontColor=default;fontStyle=0;" parent="ifvDIBjyfbEK1ll5_QF5-277" vertex="1">
          <mxGeometry y="180" width="240" height="30" as="geometry" />
        </mxCell>
        <mxCell id="ifvDIBjyfbEK1ll5_QF5-284" value="" style="swimlane;startSize=0;strokeColor=default;align=center;verticalAlign=middle;fontFamily=Helvetica;fontSize=12;fontColor=default;fontStyle=0;fillColor=default;" parent="ifvDIBjyfbEK1ll5_QF5-277" vertex="1">
          <mxGeometry y="210" width="240" height="200" as="geometry" />
        </mxCell>
        <mxCell id="ifvDIBjyfbEK1ll5_QF5-285" value="+loadAllBillsData() :&amp;nbsp;List&amp;lt;Bill&amp;gt;" style="text;strokeColor=none;fillColor=none;align=left;verticalAlign=middle;spacingLeft=4;spacingRight=4;overflow=hidden;points=[[0,0.5],[1,0.5]];portConstraint=eastwest;rotatable=0;whiteSpace=wrap;html=1;fontFamily=Helvetica;fontSize=12;fontColor=default;fontStyle=0;" parent="ifvDIBjyfbEK1ll5_QF5-284" vertex="1">
          <mxGeometry y="20" width="240" height="30" as="geometry" />
        </mxCell>
        <mxCell id="ifvDIBjyfbEK1ll5_QF5-286" value="+check(ma : String ) : Boolean" style="text;strokeColor=none;fillColor=none;align=left;verticalAlign=middle;spacingLeft=4;spacingRight=4;overflow=hidden;points=[[0,0.5],[1,0.5]];portConstraint=eastwest;rotatable=0;whiteSpace=wrap;html=1;fontFamily=Helvetica;fontSize=12;fontColor=default;fontStyle=0;" parent="ifvDIBjyfbEK1ll5_QF5-284" vertex="1">
          <mxGeometry y="50" width="240" height="30" as="geometry" />
        </mxCell>
        <mxCell id="ifvDIBjyfbEK1ll5_QF5-287" value="+fillBillID() : String" style="text;strokeColor=none;fillColor=none;align=left;verticalAlign=middle;spacingLeft=4;spacingRight=4;overflow=hidden;points=[[0,0.5],[1,0.5]];portConstraint=eastwest;rotatable=0;whiteSpace=wrap;html=1;fontFamily=Helvetica;fontSize=12;fontColor=default;fontStyle=0;" parent="ifvDIBjyfbEK1ll5_QF5-284" vertex="1">
          <mxGeometry y="80" width="240" height="30" as="geometry" />
        </mxCell>
        <mxCell id="ifvDIBjyfbEK1ll5_QF5-288" value="+NewBIllID() : String&amp;nbsp;" style="text;strokeColor=none;fillColor=none;align=left;verticalAlign=middle;spacingLeft=4;spacingRight=4;overflow=hidden;points=[[0,0.5],[1,0.5]];portConstraint=eastwest;rotatable=0;whiteSpace=wrap;html=1;fontFamily=Helvetica;fontSize=12;fontColor=default;fontStyle=0;" parent="ifvDIBjyfbEK1ll5_QF5-284" vertex="1">
          <mxGeometry y="110" width="240" height="30" as="geometry" />
        </mxCell>
        <mxCell id="ifvDIBjyfbEK1ll5_QF5-289" value="+saveBillToDB(Bill B) : int" style="text;strokeColor=none;fillColor=none;align=left;verticalAlign=middle;spacingLeft=4;spacingRight=4;overflow=hidden;points=[[0,0.5],[1,0.5]];portConstraint=eastwest;rotatable=0;whiteSpace=wrap;html=1;fontFamily=Helvetica;fontSize=12;fontColor=default;fontStyle=0;" parent="ifvDIBjyfbEK1ll5_QF5-284" vertex="1">
          <mxGeometry y="140" width="240" height="30" as="geometry" />
        </mxCell>
        <mxCell id="ifvDIBjyfbEK1ll5_QF5-306" value="update(Bill B) : int" style="text;strokeColor=none;fillColor=none;align=left;verticalAlign=middle;spacingLeft=4;spacingRight=4;overflow=hidden;points=[[0,0.5],[1,0.5]];portConstraint=eastwest;rotatable=0;whiteSpace=wrap;html=1;fontFamily=Helvetica;fontSize=12;fontColor=default;fontStyle=0;" parent="ifvDIBjyfbEK1ll5_QF5-284" vertex="1">
          <mxGeometry y="170" width="240" height="30" as="geometry" />
        </mxCell>
        <mxCell id="ifvDIBjyfbEK1ll5_QF5-290" value="BillDetail" style="swimlane;fontStyle=0;childLayout=stackLayout;horizontal=1;startSize=30;horizontalStack=0;resizeParent=1;resizeParentMax=0;resizeLast=0;collapsible=1;marginBottom=0;whiteSpace=wrap;html=1;strokeColor=default;align=center;verticalAlign=middle;fontFamily=Helvetica;fontSize=12;fontColor=default;fillColor=default;" parent="1" vertex="1">
          <mxGeometry x="-360" y="-130" width="240" height="240" as="geometry" />
        </mxCell>
        <mxCell id="ifvDIBjyfbEK1ll5_QF5-291" value="-NameProduct :&amp;nbsp;String" style="text;strokeColor=none;fillColor=none;align=left;verticalAlign=middle;spacingLeft=4;spacingRight=4;overflow=hidden;points=[[0,0.5],[1,0.5]];portConstraint=eastwest;rotatable=0;whiteSpace=wrap;html=1;fontFamily=Helvetica;fontSize=12;fontColor=default;fontStyle=0;" parent="ifvDIBjyfbEK1ll5_QF5-290" vertex="1">
          <mxGeometry y="30" width="240" height="30" as="geometry" />
        </mxCell>
        <mxCell id="ifvDIBjyfbEK1ll5_QF5-292" value="-productId :&amp;nbsp;String" style="text;strokeColor=none;fillColor=none;align=left;verticalAlign=middle;spacingLeft=4;spacingRight=4;overflow=hidden;points=[[0,0.5],[1,0.5]];portConstraint=eastwest;rotatable=0;whiteSpace=wrap;html=1;fontFamily=Helvetica;fontSize=12;fontColor=default;fontStyle=0;" parent="ifvDIBjyfbEK1ll5_QF5-290" vertex="1">
          <mxGeometry y="60" width="240" height="30" as="geometry" />
        </mxCell>
        <mxCell id="ifvDIBjyfbEK1ll5_QF5-293" value="-quantity :&amp;nbsp;int" style="text;strokeColor=none;fillColor=none;align=left;verticalAlign=middle;spacingLeft=4;spacingRight=4;overflow=hidden;points=[[0,0.5],[1,0.5]];portConstraint=eastwest;rotatable=0;whiteSpace=wrap;html=1;fontFamily=Helvetica;fontSize=12;fontColor=default;fontStyle=0;" parent="ifvDIBjyfbEK1ll5_QF5-290" vertex="1">
          <mxGeometry y="90" width="240" height="30" as="geometry" />
        </mxCell>
        <mxCell id="ifvDIBjyfbEK1ll5_QF5-294" value="-Price :&amp;nbsp;double" style="text;strokeColor=none;fillColor=none;align=left;verticalAlign=middle;spacingLeft=4;spacingRight=4;overflow=hidden;points=[[0,0.5],[1,0.5]];portConstraint=eastwest;rotatable=0;whiteSpace=wrap;html=1;fontFamily=Helvetica;fontSize=12;fontColor=default;fontStyle=0;" parent="ifvDIBjyfbEK1ll5_QF5-290" vertex="1">
          <mxGeometry y="120" width="240" height="30" as="geometry" />
        </mxCell>
        <mxCell id="ifvDIBjyfbEK1ll5_QF5-295" value="-subtotal :&amp;nbsp;double" style="text;strokeColor=none;fillColor=none;align=left;verticalAlign=middle;spacingLeft=4;spacingRight=4;overflow=hidden;points=[[0,0.5],[1,0.5]];portConstraint=eastwest;rotatable=0;whiteSpace=wrap;html=1;fontFamily=Helvetica;fontSize=12;fontColor=default;fontStyle=0;" parent="ifvDIBjyfbEK1ll5_QF5-290" vertex="1">
          <mxGeometry y="150" width="240" height="30" as="geometry" />
        </mxCell>
        <mxCell id="ifvDIBjyfbEK1ll5_QF5-297" value="" style="swimlane;startSize=0;strokeColor=default;align=center;verticalAlign=middle;fontFamily=Helvetica;fontSize=12;fontColor=default;fontStyle=0;fillColor=default;" parent="ifvDIBjyfbEK1ll5_QF5-290" vertex="1">
          <mxGeometry y="180" width="240" height="60" as="geometry" />
        </mxCell>
        <mxCell id="ifvDIBjyfbEK1ll5_QF5-298" value="+lfilltoArrayList() :&amp;nbsp;List&amp;lt;BillDetail&amp;gt;" style="text;strokeColor=none;fillColor=none;align=left;verticalAlign=middle;spacingLeft=4;spacingRight=4;overflow=hidden;points=[[0,0.5],[1,0.5]];portConstraint=eastwest;rotatable=0;whiteSpace=wrap;html=1;fontFamily=Helvetica;fontSize=12;fontColor=default;fontStyle=0;" parent="ifvDIBjyfbEK1ll5_QF5-297" vertex="1">
          <mxGeometry y="20" width="240" height="30" as="geometry" />
        </mxCell>
        <mxCell id="ifvDIBjyfbEK1ll5_QF5-309" value="" style="endArrow=none;html=1;rounded=0;fontFamily=Helvetica;fontSize=12;fontColor=default;fontStyle=0;entryX=0.5;entryY=1;entryDx=0;entryDy=0;exitX=0.5;exitY=0;exitDx=0;exitDy=0;" parent="1" source="ifvDIBjyfbEK1ll5_QF5-264" target="ifvDIBjyfbEK1ll5_QF5-216" edge="1">
          <mxGeometry width="50" height="50" relative="1" as="geometry">
            <mxPoint x="-640" y="-290" as="sourcePoint" />
            <mxPoint x="-590" y="-370" as="targetPoint" />
          </mxGeometry>
        </mxCell>
        <mxCell id="ifvDIBjyfbEK1ll5_QF5-310" value="" style="endArrow=none;html=1;rounded=0;fontFamily=Helvetica;fontSize=12;fontColor=default;fontStyle=0;entryX=0;entryY=0.5;entryDx=0;entryDy=0;entryPerimeter=0;exitX=1;exitY=0.5;exitDx=0;exitDy=0;" parent="1" source="ifvDIBjyfbEK1ll5_QF5-270" target="ifvDIBjyfbEK1ll5_QF5-291" edge="1">
          <mxGeometry width="50" height="50" relative="1" as="geometry">
            <mxPoint x="-520" y="35" as="sourcePoint" />
            <mxPoint x="-400" y="-50" as="targetPoint" />
          </mxGeometry>
        </mxCell>
        <mxCell id="ifvDIBjyfbEK1ll5_QF5-312" value="" style="endArrow=none;html=1;rounded=0;fontFamily=Helvetica;fontSize=12;fontColor=default;fontStyle=0;entryX=0.5;entryY=0;entryDx=0;entryDy=0;" parent="1" target="ifvDIBjyfbEK1ll5_QF5-290" edge="1">
          <mxGeometry width="50" height="50" relative="1" as="geometry">
            <mxPoint x="-240" y="-201" as="sourcePoint" />
            <mxPoint x="-430" y="-190" as="targetPoint" />
          </mxGeometry>
        </mxCell>
        <mxCell id="ifvDIBjyfbEK1ll5_QF5-315" value="" style="endArrow=none;html=1;rounded=0;fontFamily=Helvetica;fontSize=12;fontColor=default;fontStyle=0;" parent="1" source="ifvDIBjyfbEK1ll5_QF5-306" target="ifvDIBjyfbEK1ll5_QF5-238" edge="1">
          <mxGeometry width="50" height="50" relative="1" as="geometry">
            <mxPoint x="-70" y="-210" as="sourcePoint" />
            <mxPoint x="-20" y="-260" as="targetPoint" />
          </mxGeometry>
        </mxCell>
        <mxCell id="ifvDIBjyfbEK1ll5_QF5-316" value="" style="endArrow=none;html=1;rounded=0;fontFamily=Helvetica;fontSize=12;fontColor=default;fontStyle=0;exitX=1;exitY=0;exitDx=0;exitDy=0;entryX=0.001;entryY=0.275;entryDx=0;entryDy=0;entryPerimeter=0;" parent="1" source="ifvDIBjyfbEK1ll5_QF5-277" target="ifvDIBjyfbEK1ll5_QF5-254" edge="1">
          <mxGeometry width="50" height="50" relative="1" as="geometry">
            <mxPoint x="-70" y="-550" as="sourcePoint" />
            <mxPoint x="-20" y="-600" as="targetPoint" />
          </mxGeometry>
        </mxCell>
        <mxCell id="i73bG-fa9WUAwF2GNUNH-8" style="edgeStyle=orthogonalEdgeStyle;rounded=0;orthogonalLoop=1;jettySize=auto;html=1;" edge="1" parent="1" source="i73bG-fa9WUAwF2GNUNH-1" target="i73bG-fa9WUAwF2GNUNH-4">
          <mxGeometry relative="1" as="geometry" />
        </mxCell>
        <mxCell id="i73bG-fa9WUAwF2GNUNH-9" style="edgeStyle=orthogonalEdgeStyle;rounded=0;orthogonalLoop=1;jettySize=auto;html=1;" edge="1" parent="1" source="i73bG-fa9WUAwF2GNUNH-1" target="i73bG-fa9WUAwF2GNUNH-6">
          <mxGeometry relative="1" as="geometry" />
        </mxCell>
        <mxCell id="i73bG-fa9WUAwF2GNUNH-1" value="GS1" style="rounded=0;whiteSpace=wrap;html=1;" vertex="1" parent="1">
          <mxGeometry x="-520" y="680" width="240" height="80" as="geometry" />
        </mxCell>
        <mxCell id="i73bG-fa9WUAwF2GNUNH-10" style="edgeStyle=orthogonalEdgeStyle;rounded=0;orthogonalLoop=1;jettySize=auto;html=1;" edge="1" parent="1" source="i73bG-fa9WUAwF2GNUNH-4" target="i73bG-fa9WUAwF2GNUNH-7">
          <mxGeometry relative="1" as="geometry" />
        </mxCell>
        <mxCell id="i73bG-fa9WUAwF2GNUNH-4" value="ĐĂNG NHẬP" style="rounded=0;whiteSpace=wrap;html=1;" vertex="1" parent="1">
          <mxGeometry x="-540" y="820" width="120" height="50" as="geometry" />
        </mxCell>
        <mxCell id="i73bG-fa9WUAwF2GNUNH-11" style="edgeStyle=orthogonalEdgeStyle;rounded=0;orthogonalLoop=1;jettySize=auto;html=1;entryX=0.5;entryY=0;entryDx=0;entryDy=0;" edge="1" parent="1" source="i73bG-fa9WUAwF2GNUNH-6" target="i73bG-fa9WUAwF2GNUNH-7">
          <mxGeometry relative="1" as="geometry" />
        </mxCell>
        <mxCell id="i73bG-fa9WUAwF2GNUNH-6" value="ĐĂNG KÝ" style="rounded=0;whiteSpace=wrap;html=1;" vertex="1" parent="1">
          <mxGeometry x="-380" y="820" width="120" height="50" as="geometry" />
        </mxCell>
        <mxCell id="i73bG-fa9WUAwF2GNUNH-25" style="edgeStyle=orthogonalEdgeStyle;rounded=0;orthogonalLoop=1;jettySize=auto;html=1;entryX=0.5;entryY=0;entryDx=0;entryDy=0;" edge="1" parent="1" source="i73bG-fa9WUAwF2GNUNH-7" target="i73bG-fa9WUAwF2GNUNH-14">
          <mxGeometry relative="1" as="geometry" />
        </mxCell>
        <mxCell id="i73bG-fa9WUAwF2GNUNH-26" style="edgeStyle=orthogonalEdgeStyle;rounded=0;orthogonalLoop=1;jettySize=auto;html=1;entryX=0.5;entryY=0;entryDx=0;entryDy=0;" edge="1" parent="1" source="i73bG-fa9WUAwF2GNUNH-7" target="i73bG-fa9WUAwF2GNUNH-13">
          <mxGeometry relative="1" as="geometry" />
        </mxCell>
        <mxCell id="i73bG-fa9WUAwF2GNUNH-27" style="edgeStyle=orthogonalEdgeStyle;rounded=0;orthogonalLoop=1;jettySize=auto;html=1;entryX=0.5;entryY=0;entryDx=0;entryDy=0;exitX=0.5;exitY=1;exitDx=0;exitDy=0;" edge="1" parent="1" source="i73bG-fa9WUAwF2GNUNH-7" target="i73bG-fa9WUAwF2GNUNH-17">
          <mxGeometry relative="1" as="geometry" />
        </mxCell>
        <mxCell id="i73bG-fa9WUAwF2GNUNH-28" style="edgeStyle=orthogonalEdgeStyle;rounded=0;orthogonalLoop=1;jettySize=auto;html=1;exitX=0.5;exitY=1;exitDx=0;exitDy=0;" edge="1" parent="1" source="i73bG-fa9WUAwF2GNUNH-7" target="i73bG-fa9WUAwF2GNUNH-23">
          <mxGeometry relative="1" as="geometry" />
        </mxCell>
        <mxCell id="i73bG-fa9WUAwF2GNUNH-29" style="edgeStyle=orthogonalEdgeStyle;rounded=0;orthogonalLoop=1;jettySize=auto;html=1;exitX=0.5;exitY=1;exitDx=0;exitDy=0;" edge="1" parent="1" source="i73bG-fa9WUAwF2GNUNH-7" target="i73bG-fa9WUAwF2GNUNH-15">
          <mxGeometry relative="1" as="geometry" />
        </mxCell>
        <mxCell id="i73bG-fa9WUAwF2GNUNH-30" style="edgeStyle=orthogonalEdgeStyle;rounded=0;orthogonalLoop=1;jettySize=auto;html=1;entryX=0.5;entryY=0;entryDx=0;entryDy=0;exitX=0.5;exitY=1;exitDx=0;exitDy=0;" edge="1" parent="1" source="i73bG-fa9WUAwF2GNUNH-7" target="i73bG-fa9WUAwF2GNUNH-16">
          <mxGeometry relative="1" as="geometry" />
        </mxCell>
        <mxCell id="i73bG-fa9WUAwF2GNUNH-7" value="MAIN" style="rounded=0;whiteSpace=wrap;html=1;" vertex="1" parent="1">
          <mxGeometry x="-460" y="920" width="120" height="50" as="geometry" />
        </mxCell>
        <mxCell id="i73bG-fa9WUAwF2GNUNH-12" value="ĐĂNG XUẤT" style="rounded=0;whiteSpace=wrap;html=1;" vertex="1" parent="1">
          <mxGeometry x="-600" y="1140" width="160" height="60" as="geometry" />
        </mxCell>
        <mxCell id="i73bG-fa9WUAwF2GNUNH-13" value="BÁN HÀNG" style="rounded=0;whiteSpace=wrap;html=1;" vertex="1" parent="1">
          <mxGeometry x="-360" y="1040" width="160" height="60" as="geometry" />
        </mxCell>
        <mxCell id="i73bG-fa9WUAwF2GNUNH-14" value="HỆ THỐNG" style="rounded=0;whiteSpace=wrap;html=1;" vertex="1" parent="1">
          <mxGeometry x="-600" y="1040" width="160" height="60" as="geometry" />
        </mxCell>
        <mxCell id="i73bG-fa9WUAwF2GNUNH-15" value="HÀNG HÓA" style="rounded=0;whiteSpace=wrap;html=1;" vertex="1" parent="1">
          <mxGeometry x="-160" y="1040" width="160" height="60" as="geometry" />
        </mxCell>
        <mxCell id="i73bG-fa9WUAwF2GNUNH-16" value="GIAO DỊCH" style="rounded=0;whiteSpace=wrap;html=1;" vertex="1" parent="1">
          <mxGeometry x="40" y="1040" width="160" height="60" as="geometry" />
        </mxCell>
        <mxCell id="i73bG-fa9WUAwF2GNUNH-17" value="TỔNG QUAN" style="rounded=0;whiteSpace=wrap;html=1;" vertex="1" parent="1">
          <mxGeometry x="-800" y="1040" width="160" height="60" as="geometry" />
        </mxCell>
        <mxCell id="i73bG-fa9WUAwF2GNUNH-18" value="THANH TOÁN" style="rounded=0;whiteSpace=wrap;html=1;" vertex="1" parent="1">
          <mxGeometry x="-360" y="1140" width="160" height="60" as="geometry" />
        </mxCell>
        <mxCell id="i73bG-fa9WUAwF2GNUNH-19" value="LỊCH SỬ HÓA ĐƠN" style="rounded=0;whiteSpace=wrap;html=1;" vertex="1" parent="1">
          <mxGeometry x="40" y="1140" width="160" height="60" as="geometry" />
        </mxCell>
        <mxCell id="i73bG-fa9WUAwF2GNUNH-20" value="HÓA ĐƠN CHI TIẾT" style="rounded=0;whiteSpace=wrap;html=1;" vertex="1" parent="1">
          <mxGeometry x="40" y="1240" width="160" height="60" as="geometry" />
        </mxCell>
        <mxCell id="i73bG-fa9WUAwF2GNUNH-21" value="TỔNG QUAN SẢN PHẨM" style="rounded=0;whiteSpace=wrap;html=1;" vertex="1" parent="1">
          <mxGeometry x="-160" y="1140" width="160" height="60" as="geometry" />
        </mxCell>
        <mxCell id="i73bG-fa9WUAwF2GNUNH-22" value="THÊM, SỬA, XÓA&amp;nbsp;&lt;div&gt;SẢN PHẨM&lt;/div&gt;" style="rounded=0;whiteSpace=wrap;html=1;" vertex="1" parent="1">
          <mxGeometry x="-160" y="1240" width="160" height="60" as="geometry" />
        </mxCell>
        <mxCell id="i73bG-fa9WUAwF2GNUNH-23" value="GIAO DỊCH" style="rounded=0;whiteSpace=wrap;html=1;" vertex="1" parent="1">
          <mxGeometry x="-1000" y="1040" width="160" height="60" as="geometry" />
        </mxCell>
        <mxCell id="i73bG-fa9WUAwF2GNUNH-24" value="THỐNG KÊ" style="rounded=0;whiteSpace=wrap;html=1;" vertex="1" parent="1">
          <mxGeometry x="-1000" y="1140" width="160" height="60" as="geometry" />
        </mxCell>
        <mxCell id="i73bG-fa9WUAwF2GNUNH-31" value="" style="endArrow=none;html=1;rounded=0;entryX=0.5;entryY=1;entryDx=0;entryDy=0;exitX=0.5;exitY=0;exitDx=0;exitDy=0;" edge="1" parent="1" source="i73bG-fa9WUAwF2GNUNH-24" target="i73bG-fa9WUAwF2GNUNH-23">
          <mxGeometry width="50" height="50" relative="1" as="geometry">
            <mxPoint x="-870" y="1405" as="sourcePoint" />
            <mxPoint x="-920" y="1135" as="targetPoint" />
          </mxGeometry>
        </mxCell>
        <mxCell id="i73bG-fa9WUAwF2GNUNH-32" value="" style="endArrow=none;html=1;rounded=0;entryX=0.5;entryY=1;entryDx=0;entryDy=0;exitX=0.5;exitY=0;exitDx=0;exitDy=0;" edge="1" parent="1" source="i73bG-fa9WUAwF2GNUNH-12" target="i73bG-fa9WUAwF2GNUNH-14">
          <mxGeometry width="50" height="50" relative="1" as="geometry">
            <mxPoint x="-680" y="1290" as="sourcePoint" />
            <mxPoint x="-630" y="1240" as="targetPoint" />
          </mxGeometry>
        </mxCell>
        <mxCell id="i73bG-fa9WUAwF2GNUNH-33" value="" style="endArrow=none;html=1;rounded=0;entryX=0.5;entryY=1;entryDx=0;entryDy=0;exitX=0.5;exitY=0;exitDx=0;exitDy=0;" edge="1" parent="1" source="i73bG-fa9WUAwF2GNUNH-18" target="i73bG-fa9WUAwF2GNUNH-13">
          <mxGeometry width="50" height="50" relative="1" as="geometry">
            <mxPoint x="-510" y="1150" as="sourcePoint" />
            <mxPoint x="-510" y="1110" as="targetPoint" />
          </mxGeometry>
        </mxCell>
        <mxCell id="i73bG-fa9WUAwF2GNUNH-35" value="" style="endArrow=none;html=1;rounded=0;entryX=0.5;entryY=1;entryDx=0;entryDy=0;" edge="1" parent="1" source="i73bG-fa9WUAwF2GNUNH-21" target="i73bG-fa9WUAwF2GNUNH-15">
          <mxGeometry width="50" height="50" relative="1" as="geometry">
            <mxPoint x="-270" y="1150" as="sourcePoint" />
            <mxPoint x="-270" y="1110" as="targetPoint" />
          </mxGeometry>
        </mxCell>
        <mxCell id="i73bG-fa9WUAwF2GNUNH-36" value="" style="endArrow=none;html=1;rounded=0;entryX=0.5;entryY=1;entryDx=0;entryDy=0;exitX=0.5;exitY=0;exitDx=0;exitDy=0;" edge="1" parent="1" source="i73bG-fa9WUAwF2GNUNH-22" target="i73bG-fa9WUAwF2GNUNH-21">
          <mxGeometry width="50" height="50" relative="1" as="geometry">
            <mxPoint x="-70" y="1150" as="sourcePoint" />
            <mxPoint x="-70" y="1110" as="targetPoint" />
          </mxGeometry>
        </mxCell>
        <mxCell id="i73bG-fa9WUAwF2GNUNH-37" value="" style="endArrow=none;html=1;rounded=0;entryX=0.5;entryY=1;entryDx=0;entryDy=0;exitX=0.5;exitY=0;exitDx=0;exitDy=0;" edge="1" parent="1" source="i73bG-fa9WUAwF2GNUNH-19" target="i73bG-fa9WUAwF2GNUNH-16">
          <mxGeometry width="50" height="50" relative="1" as="geometry">
            <mxPoint x="-70" y="1150" as="sourcePoint" />
            <mxPoint x="-70" y="1110" as="targetPoint" />
          </mxGeometry>
        </mxCell>
        <mxCell id="i73bG-fa9WUAwF2GNUNH-40" value="" style="endArrow=none;html=1;rounded=0;entryX=0.5;entryY=1;entryDx=0;entryDy=0;exitX=0.5;exitY=0;exitDx=0;exitDy=0;" edge="1" parent="1" source="i73bG-fa9WUAwF2GNUNH-20" target="i73bG-fa9WUAwF2GNUNH-19">
          <mxGeometry width="50" height="50" relative="1" as="geometry">
            <mxPoint x="130" y="1150" as="sourcePoint" />
            <mxPoint x="130" y="1110" as="targetPoint" />
          </mxGeometry>
        </mxCell>
        <mxCell id="i73bG-fa9WUAwF2GNUNH-41" value="ĐĂNG XUẤT" style="rounded=0;whiteSpace=wrap;html=1;" vertex="1" parent="1">
          <mxGeometry x="-460" y="1340" width="120" height="50" as="geometry" />
        </mxCell>
      </root>
    </mxGraphModel>
  </diagram>
</mxfile>
